<?xml version="1.0" encoding="UTF-8"?>
<svg version="1.1" viewBox="0 0 800 800" width="800" height="800" xmlns="http://www.w3.org/2000/svg">
<path transform="translate(374,142)" d="m0 0h46l21 3 27 6 30 10 16 8 20 11 16 11 13 11 11 9 9 9v2l3 1 7 8 11 13 8 12 9 14 8 14 9 21 8 22 5 20 4 28 1 13v28l-2 23-4 22-6 21-8 22-13 27-15 22-10 13-11 12-1 3v12l7 2 2-3 2-6h2v10l14 1 18 3 8 3 2 4-2 3h4v-10l2 1 2 9 4 1v-39l-5-8-4-13v-16l4-22 6-19 3-1 6 16 4 16 1 7v20l-4 13-5 8-1 32-1 6h2l1-6 5-12 3-5v-14l4-13 7-9 13-10 17-9 6-1-1 9-5 13-9 17-9 10-8 5-11 2-2 6-6 14-2 5h10l25 4 25 7 8 4 2 2v6l-5 4-15 6-29 6-35 5-29 3-34 3-68 4-67 2h-102l-66-2-66-4-56-5-38-5-22-4-16-4-14-6-3-3 1-7 14-7 16-4h3v-8l3 2 1 5 7-2 15-2h10l-6-16-5-9-10-2-9-6-7-8-8-14-5-12-3-9v-5l6 1 16 8 9 7 10 9 5 10 1 4v15l6 13 3 10h2l-1-12-1-25-4-5-5-14v-19l4-19 7-21 3-1 6 17 3 13 1 6v25l-5 13-3 4v39h6l2-3 2-9h2l-1 12 7-1-1-1v-5l8-3 17-3h6v-17h3l2 16 7-1v-9l2 2 1 6 3-3 1-9-4-4v-2l-3-1-20-25-16-27-8-16-8-21-7-25-5-28-1-10v-42l3-23 6-27 10-30 9-19 14-24 10-14 12-14 7-8 16-16 11-9 12-9 15-10 17-9 16-8 22-8 28-7zm-109 73-3 11-3 5-9 6 9 6 4 9 2 8 2-2 4-13 5-5 5-3-8-4-5-10-2-8zm280 52-3 5 2 5h4l3-3-2-4-2-3zm-339 21-4 12-2 2-5 1v2l6 3 3 6 2 7 2-3 3-10 5-2 1-3-6-3-3-8zm370 81-4 5 1 4 3 3h2l3-4-1-4zm-354 19-3 6-3 3 5 6 2 2 6-9-5-6zm390 8-4 10-7 5 8 8 3 9 2-3 3-9 6-4-7-7-3-9zm-397 191-1 7 3-1v-5z" fill="#DE8464"/>
<path transform="translate(470,183)" d="m0 0h8l9 3 8 8 3 7v11l-3 8-6 7-10 4h-9l-8-3-5-4-5-10v-5l-23-3-20-3v9l-8 62-1 3h9l17 2 23 5 18 7 17 9 7 5 6-1 8-2h7l10 3 8 6 5 6 3 7 1 5v13l-3 9-9 10-4 3-3 12-8 16-8 11-8 7-15 10-17 9-14 4-11 3h-6l3 8 3 12 3 11 3 21 1 4v27l-4 22-7 21-7 13-7 9-10 8-6 3-5 1h-12l-9-5-10-9-6-7-8-16-5-15-3-15-1-9v-24l2-19 4-21 6-20-8-1-18-5-16-7-17-11-11-9-7-8-8-15-3-13v-4l-5-2-7-7-4-9-1-13 2-9 5-9 9-8 12-4h7l13 3 14-9 21-10 22-6 31-4 10-73 2-12 14 1 36 6 2 1 2-5 6-7z" fill="#FCFCFB"/>
<path transform="translate(141,493)" d="m0 0h2l6 17 3 13 1 6v25l-5 13-3 4v39h6l2-3 2-9h2l-1 12 7-1h3 3l9 3 41 5 43 3 53 2 52 1h60l54-1 54-2 45-3 30-3 20-3 9-3v2h4v-10l2 1 2 9 4 1v-39l-5-8-4-13v-16l4-22 6-19 3-1 6 16 4 16 1 7v20l-4 13-5 8-1 32-1 6h2l1-6 5-12 3-5v-14l4-13 7-9 13-10 17-9 6-1-1 9-5 13-9 17-9 10-8 5-11 2-2 6-6 14-2 5h10l25 4 25 7 8 4 2 2v6l-5 4-15 6-29 6-35 5-29 3-34 3-68 4-67 2h-102l-66-2-66-4-56-5-38-5-22-4-16-4-14-6-3-3 1-7 14-7 16-4h3v-8l3 2 1 5 7-2 15-2h10l-6-16-5-9-10-2-9-6-7-8-8-14-5-12-3-9v-5l6 1 16 8 9 7 10 9 5 10 1 4v15l6 13 3 10h2l-1-12-1-25-4-5-5-14v-19l4-19 7-21z" fill="#E8AA82"/>
<path transform="translate(342,434)" d="m0 0h8l8 2-2 11-4 13-4 23-1 13v24l3 19 3 11 5 14 6 11 9 10 7 6 8 4h12l7-2 9-6 7-6 8-13 5-11 6-21 3-17v-27l-3-16-2-13-4-13-2-9-1-5 9-2h8l10 9 7 8 5 5 8 13 5 16 1 6v16l-4 15-6 10-7 7-6 3-6-1-2-1-1 8-5 15-4 8h17l11 4 6 4 5 6 3 9v11h-183v-10l4-11 8-8 13-5h17l-6-14-4-13v-3l-8 1-9-6-6-7-5-10-3-13v-13l2-13 5-12 7-11 9-11 6-6h2v-2z" fill="#5D1B15"/>
<path transform="translate(435,447)" d="m0 0 2 3 5 17 3 21 1 4v27l-4 22-7 21-7 13-7 9-10 8-6 3-5 1h-12l-9-5-10-9-6-7-8-16-5-15-3-15-1-9v-24l2-19 3-3 17-8 24-8 19-4 20-2 4-1z" fill="#FCFCFC"/>
<path transform="translate(281,302)" d="m0 0h7l11 3 1 2-10 8-7 8-6 9-4 12v6l6 11 7 10 5 6 8 7 10 8 15 9 20 9 29 8 22 3h26l23-3 15-4 20-8 11-6 11-8 10-10 6-7h2l1-2-1 6-8 15-8 10-7 6-15 10-17 9-14 4-11 3h-6l3 8v8l-25 3-19 4-27 9-14 7h-2l2-15 7-24-8-1-18-5-16-7-17-11-11-9-7-8-8-15-3-13v-4l-5-2-7-7-4-9-1-13 2-9 5-9 9-8z" fill="#F4E8D8"/>
<path transform="translate(141,493)" d="m0 0h2l6 17 3 13 1 6v25l-5 13-3 4h-2l1 58h-6l-1-11-5-14-8-16-10-2-9-6-7-8-8-14-5-12-3-9v-5l6 1 16 8 9 7 10 9 5 10 1 4v15l6 13 3 10h2l-1-12-1-25-4-5-5-14v-19l4-19 7-21z" fill="#DF8666"/>
<path transform="translate(653,493)" d="m0 0h2l6 16 4 16 1 7v20l-4 13-5 8-1 32-1 6h2l1-6 5-12 3-5v-14l4-13 7-9 13-10 17-9 6-1-1 9-5 13-9 17-9 10-8 5-11 2-2 6-6 14-3 8-2 13h-5l-1-57-5-8-4-13v-16l4-22 6-19z" fill="#DF8667"/>
<path transform="translate(445,492)" d="m0 0h1v27l-4 22-7 21-7 13-7 9-10 8-6 3-5 1h-12l-9-5-10-9-6-7-8-16-5-15-3-15v-9l1-5 2 3 5 14 6 11 5 6 11 9 2 3 4 1v2l9 1 6-1 8-1 11-4 10-9 9-15 5-9 3-8z" fill="#F4E5D5"/>
<path transform="translate(358,436)" d="m0 0 19 3h38l18-2 3 7v8l-25 3-19 4-27 9-14 7h-2l2-15z" fill="#E4B89D"/>
<path transform="translate(141,493)" d="m0 0h2l6 17 3 13 1 6v25l-5 13-4 4-2-27h-1v68l-4-1 1-4v2h2l-1-12-1-25-4-5-5-14v-19l4-19 7-21z" fill="#E0896A"/>
<path transform="translate(505,302)" d="m0 0h7l10 3 8 6 5 6 3 7 1 5v13l-3 9-9 10-5 3-1-14-4-13-6-11-9-11-8-7-2-2z" fill="#F5E9D9"/>
<path transform="translate(653,493)" d="m0 0h2l6 16 4 16 1 7v20l-4 13-5 8-1 32h-1l-1-64-2 31-4-4-5-12-1-5v-16l4-22 6-19z" fill="#DF896A"/>
<path transform="translate(344,318)" d="m0 0h10v2l7 2 6 7 1 2v10l-1 7-5 5-8 5h-11l-8-5-4-5-2-5v-9l2-6h2l2-4 6-5z" fill="#C93F31"/>
<path transform="translate(437,318)" d="m0 0h10l6 3 7 8 2 5v9l-4 8-6 5-6 2h-10l-6-4-5-6-2-7v-9l6-8 5-5z" fill="#C93F30"/>
<path transform="translate(353,385)" d="m0 0h6l11 4 7 2 8 1h21l10-2 15-5h6l3 5-1 4-4 3-15 5-12 2h-26l-16-3-10-4-5-3-1-6z" fill="#651F18"/>
<path transform="translate(576,464)" d="m0 0 2 4 3 14 1 12v11l1 1v21l-3 3 4 1v17 4l-6 7-3 1-1 2-1-31v-66z" fill="#E7A880"/>
<path transform="translate(217,467)" d="m0 0h2l3 3v92l-4-2-5-5-2-3 7 2-6-5v-18l3-1-3-2v-13l1-8h4l-3-3-1-5 3-27z" fill="#E7A980"/>
<path transform="translate(225,458)" d="m0 0 2 1 3 13 4 29 2 29 1 2 1 11h-2v2l-5 5-6 2z" fill="#E7A980"/>
<path transform="translate(569,459)" d="m0 0h1l1 17v50l-1 25-3-2v-2h-2l-5-10v-6l1-3-1-1v-14l6-42z" fill="#E7A980"/>
<path transform="translate(653,535)" d="m0 0h1l1 6v70h2l1-6 5-12 3-5h2l2-6 8-11 3-2-2 6-8 12-9 21-3 8-2 13h-5v-73z" fill="#601F18"/>
<path transform="translate(141,536)" d="m0 0h1l2 22v71h-6l-1-11-5-14-10-22-7-10-1-3 4 2 7 10 2 4 3 3 5 11 2 5 1 7 3 1-1-39v-29z" fill="#6E271F"/>
<path transform="translate(281,302)" d="m0 0h7l1 2-10 5-7 8-6 9-9 5-3 4v-9l6-12 9-8z" fill="#FCFBF9"/>
<path transform="translate(232,551)" d="m0 0 4 1 1 4-4 21-5 13-3 4v-41z" fill="#E8AA81"/>
<path transform="translate(559,552)" d="m0 0h10l1 1v41l-2-3-7-21-2-11z" fill="#E8AA81"/>
<path transform="translate(507,303)" d="m0 0h10l10 5 7 7 4 9v10l-7-6-4-4-7-11-9-8z" fill="#FCFBFA"/>
<path transform="translate(680,569)" d="m0 0 1 2-10 16-8 18h-3l-1-2 4-10 3-5h2l2-6 8-11z" fill="#A55A4A"/>
<path transform="translate(583,573)" d="m0 0h1l1 6 1 2v12l7 2v1h-7l-7-3-1-5 4-14z" fill="#E8AC85"/>
<path transform="translate(530,459)" d="m0 0 7 1 1 7-3 3h-5l-3-3v-5z" fill="#FBF8F4"/>
<path transform="translate(211,580)" d="m0 0 4 2v3l4 2 2 3v4l-2 1h-8l-1-2 2-5v-6zm4 7-1 7 3-1v-5z" fill="#E9C1A5"/>
<path transform="translate(204,640)" d="m0 0h9l10 1 1 3h-21z" fill="#DF8464"/>
<path transform="translate(680,569)" d="m0 0 1 2-10 16-1 3h-3l2-6 8-12z" fill="#601D16"/>
<path transform="translate(155,598)" d="m0 0h2l-1 12 7-1h3v2l-22 1 1-2h6l2-3z" fill="#EBCAB2"/>
<path transform="translate(579,585)" d="m0 0 4 2h2l2 7 6 1v1h-7l-7-3-1-5z" fill="#ECD0BA"/>
<path transform="translate(140,573)" d="m0 0h1v39l-4-1 1-4v2h2z" fill="#D15647"/>
<path transform="translate(524,598)" d="m0 0h8l1 4h-12l-1-3z" fill="#E8AA81"/>
<path transform="translate(643,600)" d="m0 0 2 1 2 9 4 2-13-1v-3l1 2h4z" fill="#ECCFB9"/>
<path transform="translate(271,548)" d="m0 0 5 1-1 5-4 1-2-2 1-4z" fill="#F9F4EE"/>
<path transform="translate(388,641)" d="m0 0 8 1v3h-9l-2-1v-2z" fill="#DF8464"/>
<path transform="translate(234,621)" d="m0 0h11l1 3h-13z" fill="#DF8464"/>
<path transform="translate(574,587)" d="m0 0 4 1 1 5 3 1-3 1-5-1z" fill="#E7AB83"/>
<path transform="translate(179,439)" d="m0 0 5 1-1 5h-4l-1-5z" fill="#E8AA81"/>
<path transform="translate(455,438)" d="m0 0 4 2 5 4v2h2l4 5-1 2-14-14z" fill="#E39671"/>
<path transform="translate(153,611)" d="m0 0h13l-1 2-4 1-10 1v-3z" fill="#DF8464"/>
<path transform="translate(217,586)" d="m0 0 4 4v4l-5 1z" fill="#EABA98"/>
<path transform="translate(460,569)" d="m0 0 7 1 9 5 1 2-6-2-5-2v-2l-6-1z" fill="#E59F79"/>
</svg>
